<svg id="Capa_1" enable-background="new 0 0 415.882 415.882" height="512" viewBox="0 0 415.882 415.882" width="512" xmlns="http://www.w3.org/2000/svg"><path d="m401.029 415.882h-386.176c-8.21 0-14.853-6.644-14.853-14.853v-386.176c0-8.21 6.643-14.853 14.853-14.853h386.176c8.21 0 14.853 6.643 14.853 14.853v386.176c0 8.209-6.644 14.853-14.853 14.853zm-371.323-29.706h356.47v-356.47h-356.47z"/><path d="m341.617 326.764h-59.412c-8.21 0-14.853-6.643-14.853-14.853v-207.941c0-8.21 6.643-14.853 14.853-14.853h59.412c8.21 0 14.853 6.643 14.853 14.853v207.941c0 8.21-6.643 14.853-14.853 14.853zm-44.559-29.706h29.706v-178.235h-29.706z"/><path d="m237.647 326.764h-59.412c-8.21 0-14.853-6.643-14.853-14.853v-148.529c0-8.21 6.643-14.853 14.853-14.853h59.412c8.21 0 14.853 6.643 14.853 14.853v148.529c0 8.21-6.644 14.853-14.853 14.853zm-44.559-29.706h29.706v-118.823h-29.706z"/><path d="m133.676 326.764h-59.411c-8.21 0-14.853-6.643-14.853-14.853v-89.117c0-8.21 6.643-14.853 14.853-14.853h59.412c8.21 0 14.853 6.643 14.853 14.853v89.117c-.001 8.21-6.644 14.853-14.854 14.853zm-44.559-29.706h29.706v-59.412h-29.706z"/></svg>