<svg xmlns="http://www.w3.org/2000/svg" width="56" height="66.77" viewBox="0 0 56 66.77">
  <g id="實作成果" transform="translate(0)">
    <path id="Path_55" data-name="Path 55" d="M38.418,3.9V0H17.507V3.9H0V54.721L11.664,66.77H56V3.9Zm-16.99.01H34.5V7.6H21.428ZM10.537,59.977l-3.96-4.091h3.96Zm41.543,2.885H29.968V58.046a5.194,5.194,0,0,0,1.227.147,5.122,5.122,0,0,0,3.639-1.5c1.478-1.474,2.7-6.124,3.16-8.054l.729-3.078-3.088.727a39.8,39.8,0,0,0-5.667,1.741V46.972a5.138,5.138,0,0,0,3.186-4.743c0-2.085-2.433-6.235-3.479-7.922l-1.668-2.69-1.668,2.69c-1.046,1.688-3.479,5.838-3.479,7.922a5.138,5.138,0,0,0,3.186,4.743v1.053a39.8,39.8,0,0,0-5.667-1.741l-3.088-.727.729,3.078c.457,1.931,1.681,6.58,3.159,8.054a5.122,5.122,0,0,0,3.64,1.5,5.193,5.193,0,0,0,1.226-.146v4.817H14.457V51.978H3.921V7.806H17.507v3.7H38.418v-3.7H52.079ZM25.7,52.206a1.224,1.224,0,0,1-1.734,1.728,12.155,12.155,0,0,1-1.219-2.943A12.242,12.242,0,0,1,25.7,52.206Zm1.084-9.965a12.175,12.175,0,0,1,1.227-2.94,12.154,12.154,0,0,1,1.226,2.94,1.226,1.226,0,0,1-2.452,0Zm6.49,8.75a12.144,12.144,0,0,1-1.219,2.943,1.224,1.224,0,0,1-1.734-1.728,12.22,12.22,0,0,1,2.953-1.214Zm0,0" transform="translate(0)" fill="#3087a7"/>
    <path id="Path_56" data-name="Path 56" d="M70.962,122.427h2.744L68.52,127.6l-7.137-7.115L53,128.842l2.773,2.763,5.614-5.6,7.137,7.115,7.959-7.933v2.779H80.4v-9.451H70.962Zm0,0" transform="translate(-46.062 -103.063)" fill="#3087a7"/>
    <path id="Path_57" data-name="Path 57" d="M294.586,118.52h9.678v3.908h-9.678Zm0,0" transform="translate(-256.045 -103.064)" fill="#3087a7"/>
    <path id="Path_58" data-name="Path 58" d="M294.586,178.461h9.678v3.908h-9.678Zm0,0" transform="translate(-256.045 -155.188)" fill="#3087a7"/>
    <path id="Path_59" data-name="Path 59" d="M294.586,238.4h9.678v3.908h-9.678Zm0,0" transform="translate(-256.045 -207.308)" fill="#3087a7"/>
  </g>
</svg>
