<?xml version="1.0"?>
<svg xmlns="http://www.w3.org/2000/svg" height="512px" viewBox="0 0 464 464" width="512px"><g><path d="m63.976562 385.054688c6.085938-3.480469 12.910157-7.292969 24.023438-8.574219v-104.480469h-16v30.601562c0 7.679688-2.191406 15.160157-6.351562 21.621094l-41.726563 64.929688c4.070313 1.671875 8.933594 2.847656 16.023437 2.847656 11.878907 0 17.503907-3.214844 24.03125-6.945312zm0 0" data-original="#000000" class="active-path" data-old_color="#000000" fill="#3087A7"/><path d="m176.824219 402.753906c-5.914063 2.804688-13.488281 5.246094-24.855469 5.246094-16.136719 0-24.554688-4.816406-31.984375-9.054688-6.527344-3.730468-12.160156-6.945312-24.046875-6.945312-11.875 0-17.503906 3.214844-24.027344 6.945312-7.421875 4.238282-15.847656 9.054688-31.964844 9.054688-11.335937 0-18.890624-2.433594-24.785156-5.230469l-10.535156 16.398438c-3.023438 4.695312-4.625 10.136719-4.625 15.726562 0 16.050781 13.054688 29.105469 29.105469 29.105469h133.796875c16.042968 0 29.097656-13.054688 29.097656-29.105469 0-5.589843-1.601562-11.03125-4.625-15.734375zm0 0" data-original="#000000" class="active-path" data-old_color="#000000" fill="#3087A7"/><path d="m104 272v104.496094c11.046875 1.296875 17.855469 5.097656 23.921875 8.558594 6.527344 3.730468 12.167969 6.945312 24.046875 6.945312 7.128906 0 12.007812-1.183594 16.101562-2.863281l-41.71875-64.90625c-4.160156-6.46875-6.351562-13.949219-6.351562-21.628907v-30.601562zm0 0" data-original="#000000" class="active-path" data-old_color="#000000" fill="#3087A7"/><path d="m72 144h16v88h-32v24h80v-24h-32v-32h24c26.511719 0 48-21.488281 48-48h-32c-16.703125 0-31.398438 8.542969-40 21.488281v-29.488281c0-26.511719-21.488281-48-48-48h-32c0 26.511719 21.488281 48 48 48zm0 0" data-original="#000000" class="active-path" data-old_color="#000000" fill="#3087A7"/><path d="m301.777344 69.015625-8.304688-31c-29.578125 10.457031-52.992187 33.878906-63.449218 63.449219l31 8.304687c7.3125-18.609375 22.136718-33.433593 40.753906-40.753906zm0 0" data-original="#000000" class="active-path" data-old_color="#000000" fill="#3087A7"/><path d="m328 64c16.976562 0 32.558594 5.9375 44.886719 15.800781l22.699219-22.6875c-18.203126-15.617187-41.785157-25.113281-67.585938-25.113281-6.527344 0-12.894531.679688-19.097656 1.832031l8.320312 31.0625c3.53125-.535156 7.105469-.894531 10.777344-.894531zm0 0" data-original="#000000" class="active-path" data-old_color="#000000" fill="#3087A7"/><path d="m384 136c0 30.929688-25.070312 56-56 56s-56-25.070312-56-56 25.070312-56 56-56 56 25.070312 56 56zm0 0" data-original="#000000" class="active-path" data-old_color="#000000" fill="#3087A7"/><path d="m354.222656 202.984375 8.304688 31c29.578125-10.457031 52.992187-33.878906 63.449218-63.449219l-31-8.304687c-7.3125 18.609375-22.136718 33.433593-40.753906 40.753906zm0 0" data-original="#000000" class="active-path" data-old_color="#000000" fill="#3087A7"/><path d="m384.199219 91.113281c9.863281 12.320313 15.800781 27.910157 15.800781 44.886719 0 3.671875-.359375 7.246094-.894531 10.769531l31.0625 8.320313c1.152343-6.195313 1.832031-12.5625 1.832031-19.089844 0-25.800781-9.496094-49.382812-25.113281-67.574219zm0 0" data-original="#000000" class="active-path" data-old_color="#000000" fill="#3087A7"/><path d="m256 136c0-3.671875.359375-7.246094.894531-10.769531l-31.0625-8.320313c-1.152343 6.195313-1.832031 12.5625-1.832031 19.089844 0 25.800781 9.496094 49.382812 25.113281 67.574219l22.695313-22.6875c-9.871094-12.320313-15.808594-27.910157-15.808594-44.886719zm0 0" data-original="#000000" class="active-path" data-old_color="#000000" fill="#3087A7"/><path d="m144 0v136h48v16c0 29.753906-20.441406 54.761719-48 61.894531v2.105469h8v56h-8v50.097656l56.839844 88.414063c4.160156 6.472656 6.464844 13.855469 6.953125 21.488281h256.207031v-432zm304 416h-208v-64h16v48h16v-72h16v72h16v-32h16v32h16v-88h16v88h16v-120h16v120h16v-72h16v72h16v-136h16zm-120-160c-66.167969 0-120-53.832031-120-120s53.832031-120 120-120 120 53.832031 120 120-53.832031 120-120 120zm0 0" data-original="#000000" class="active-path" data-old_color="#000000" fill="#3087A7"/><path d="m328 208c-16.976562 0-32.558594-5.9375-44.886719-15.800781l-22.699219 22.6875c18.203126 15.617187 41.785157 25.113281 67.585938 25.113281 6.527344 0 12.894531-.679688 19.097656-1.832031l-8.320312-31.0625c-3.53125.535156-7.105469.894531-10.777344.894531zm0 0" data-original="#000000" class="active-path" data-old_color="#000000" fill="#3087A7"/></g> </svg>
