<svg id="實驗" xmlns="http://www.w3.org/2000/svg" width="60" height="60.001" viewBox="0 0 60 60.001">
  <g id="Group_21" data-name="Group 21" transform="translate(0 13.75)">
    <g id="Group_20" data-name="Group 20" transform="translate(0)">
      <path id="Path_73" data-name="Path 73" d="M34.029,154.208l-12.776-19.75V118.583a1.25,1.25,0,0,0-1.25-1.25h-6.25a1.25,1.25,0,0,0-1.25,1.25v15.91L.854,154.3a6.163,6.163,0,0,0,5.311,9.288H28.928a6.076,6.076,0,0,0,5.1-9.375Zm-5.1,6.875H6.165A3.663,3.663,0,0,1,3,155.563l11.828-20.1a1.25,1.25,0,0,0,.173-.634v-15h3.75v15a1.25,1.25,0,0,0,.2.679l12.975,20.054a3.575,3.575,0,0,1-3,5.518Z" transform="translate(-0.003 -117.333)" fill="#3087a7"/>
    </g>
  </g>
  <g id="Group_23" data-name="Group 23" transform="translate(5.065 35.075)">
    <g id="Group_22" data-name="Group 22">
      <path id="Path_74" data-name="Path 74" d="M56.163,300.573l-2.155-1.266L43.395,317.348a1.25,1.25,0,0,0,1.079,1.884h8.684v-2.5h-6.5Z" transform="translate(-43.222 -299.307)" fill="#3087a7"/>
    </g>
  </g>
  <g id="Group_25" data-name="Group 25" transform="translate(32.5 28.75)">
    <g id="Group_24" data-name="Group 24">
      <path id="Path_75" data-name="Path 75" d="M301.818,245.333H282.335a5,5,0,0,0-5,5v20a6.257,6.257,0,0,0,6.25,6.25h11.25a6.257,6.257,0,0,0,6.25-6.25V253.351l2.867-2.866a3.019,3.019,0,0,0-2.135-5.151Zm.366,3.384-3.233,3.233a1.25,1.25,0,0,0-.366.884v17.5a3.75,3.75,0,0,1-3.75,3.75h-11.25a3.75,3.75,0,0,1-3.75-3.75v-20a2.5,2.5,0,0,1,2.5-2.5h19.483a.517.517,0,0,1,.366.884Z" transform="translate(-277.335 -245.333)" fill="#3087a7"/>
    </g>
  </g>
  <g id="Group_27" data-name="Group 27" transform="translate(45 36.25)">
    <g id="Group_26" data-name="Group 26">
      <path id="Path_76" data-name="Path 76" d="M387.752,309.333v16.25H384v2.5h5a1.25,1.25,0,0,0,1.25-1.25v-17.5Z" transform="translate(-384.002 -309.333)" fill="#3087a7"/>
    </g>
  </g>
  <g id="Group_29" data-name="Group 29" transform="translate(19.375)">
    <g id="Group_28" data-name="Group 28">
      <path id="Path_77" data-name="Path 77" d="M180.96,18.105V1.25A1.25,1.25,0,0,0,179.71,0h-8.75a1.25,1.25,0,0,0-1.25,1.25V18.46a21.219,21.219,0,0,0-4.375,1.909l1.25,2.164a18.733,18.733,0,0,1,4.688-1.916,1.25,1.25,0,0,0,.938-1.211V2.5h6.25V19.114a1.25,1.25,0,0,0,1.016,1.228,18.768,18.768,0,0,1,11.116,6.691l1.949-1.565A21.282,21.282,0,0,0,180.96,18.105Z" transform="translate(-165.335)" fill="#3087a7"/>
    </g>
  </g>
  <g id="Group_31" data-name="Group 31" transform="translate(48.75 17.5)">
    <g id="Group_30" data-name="Group 30">
      <path id="Path_78" data-name="Path 78" d="M420.377,149.333a4.375,4.375,0,1,0,4.375,4.375A4.375,4.375,0,0,0,420.377,149.333Zm0,6.25a1.875,1.875,0,1,1,1.875-1.875A1.875,1.875,0,0,1,420.377,155.583Z" transform="translate(-416.002 -149.333)" fill="#3087a7"/>
    </g>
  </g>
  <g id="Group_33" data-name="Group 33" transform="translate(45 8.75)">
    <g id="Group_32" data-name="Group 32">
      <path id="Path_79" data-name="Path 79" d="M387.752,74.667a3.75,3.75,0,1,0,3.75,3.75A3.75,3.75,0,0,0,387.752,74.667Zm0,5a1.25,1.25,0,1,1,1.25-1.25A1.25,1.25,0,0,1,387.752,79.667Z" transform="translate(-384.002 -74.667)" fill="#3087a7"/>
    </g>
  </g>
  <g id="Group_35" data-name="Group 35" transform="translate(0 10)">
    <g id="Group_34" data-name="Group 34" transform="translate(0)">
      <path id="Path_80" data-name="Path 80" d="M4.377,85.333a4.375,4.375,0,1,0,4.375,4.375A4.375,4.375,0,0,0,4.377,85.333Zm0,6.25a1.875,1.875,0,1,1,1.875-1.875A1.875,1.875,0,0,1,4.377,91.583Z" transform="translate(-0.002 -85.333)" fill="#3087a7"/>
    </g>
  </g>
  <g id="Group_37" data-name="Group 37" transform="translate(6.25 1.25)">
    <g id="Group_36" data-name="Group 36">
      <path id="Path_81" data-name="Path 81" d="M57.085,10.667a3.75,3.75,0,1,0,3.75,3.75A3.75,3.75,0,0,0,57.085,10.667Zm0,5a1.25,1.25,0,1,1,1.25-1.25A1.25,1.25,0,0,1,57.085,15.667Z" transform="translate(-53.335 -10.667)" fill="#3087a7"/>
    </g>
  </g>
  <g id="Group_39" data-name="Group 39" transform="translate(37.5 36.25)">
    <g id="Group_38" data-name="Group 38">
      <rect id="Rectangle_9" data-name="Rectangle 9" width="3.75" height="2.5" fill="#3087a7"/>
    </g>
  </g>
  <g id="Group_41" data-name="Group 41" transform="translate(37.5 41.25)">
    <g id="Group_40" data-name="Group 40">
      <rect id="Rectangle_10" data-name="Rectangle 10" width="2.5" height="2.5" fill="#3087a7"/>
    </g>
  </g>
  <g id="Group_43" data-name="Group 43" transform="translate(37.5 46.25)">
    <g id="Group_42" data-name="Group 42">
      <rect id="Rectangle_11" data-name="Rectangle 11" width="3.75" height="2.5" fill="#3087a7"/>
    </g>
  </g>
  <g id="Group_45" data-name="Group 45" transform="translate(37.5 51.25)">
    <g id="Group_44" data-name="Group 44">
      <rect id="Rectangle_12" data-name="Rectangle 12" width="2.5" height="2.5" fill="#3087a7"/>
    </g>
  </g>
  <g id="Group_47" data-name="Group 47" transform="translate(2.5 22.5)">
    <g id="Group_46" data-name="Group 46">
      <rect id="Rectangle_13" data-name="Rectangle 13" width="2.5" height="2.5" fill="#3087a7"/>
    </g>
  </g>
  <g id="Group_49" data-name="Group 49" transform="translate(6.25 28.75)">
    <g id="Group_48" data-name="Group 48">
      <rect id="Rectangle_14" data-name="Rectangle 14" width="2.5" height="2.5" fill="#3087a7"/>
    </g>
  </g>
  <g id="Group_51" data-name="Group 51" transform="translate(27.5 33.75)">
    <g id="Group_50" data-name="Group 50">
      <rect id="Rectangle_15" data-name="Rectangle 15" width="2.5" height="2.5" fill="#3087a7"/>
    </g>
  </g>
  <g id="Group_53" data-name="Group 53" transform="translate(25 28.75)">
    <g id="Group_52" data-name="Group 52">
      <rect id="Rectangle_16" data-name="Rectangle 16" width="2.5" height="2.5" fill="#3087a7"/>
    </g>
  </g>
  <g id="Group_55" data-name="Group 55" transform="translate(23.75 23.75)">
    <g id="Group_54" data-name="Group 54">
      <rect id="Rectangle_17" data-name="Rectangle 17" width="2.5" height="2.5" fill="#3087a7"/>
    </g>
  </g>
  <g id="Group_57" data-name="Group 57" transform="translate(25 51.25)">
    <g id="Group_56" data-name="Group 56">
      <rect id="Rectangle_18" data-name="Rectangle 18" width="2.5" height="2.5" fill="#3087a7"/>
    </g>
  </g>
  <g id="Group_59" data-name="Group 59" transform="translate(21.25 46.25)">
    <g id="Group_58" data-name="Group 58">
      <rect id="Rectangle_19" data-name="Rectangle 19" width="2.5" height="2.5" fill="#3087a7"/>
    </g>
  </g>
</svg>
