<?xml version="1.0"?>
<svg xmlns="http://www.w3.org/2000/svg" height="512px" viewBox="0 0 496 496" width="512px" class=""><g><path d="m496 0h-352v162.359375c-9.214844 2.753906-17.441406 7.816406-24 14.527344v-16.886719c0-30.871094-25.121094-56-56-56h-40v8c0 30.871094 25.121094 56 56 56h24v72h-48v48h16v30.601562c0 4.605469-1.320312 9.09375-3.816406 12.972657l-61.015625 94.929687c-4.6875 7.296875-7.167969 15.726563-7.167969 24.390625 0 24.875 20.230469 45.105469 45.105469 45.105469h133.796875c20.3125 0 37.523437-13.503906 43.144531-32h273.953125zm-416 152c-19.320312 0-35.480469-13.769531-39.191406-32h23.191406c19.320312 0 35.480469 13.769531 39.191406 32zm80 24h23.191406c-3.710937 18.230469-19.878906 32-39.191406 32h-23.191406c3.710937-18.230469 19.871094-32 39.191406-32zm-88 80h80v16h-80zm70.351562 84.230469 41.71875 64.90625c-4.085937 1.679687-8.972656 2.863281-16.101562 2.863281-11.878906 0-17.519531-3.214844-24.046875-6.945312-6.066406-3.460938-12.875-7.261719-23.921875-8.558594v-104.496094h16v30.601562c0 7.679688 2.191406 15.160157 6.351562 21.628907zm-60.703124-.007813c4.160156-6.460937 6.351562-13.941406 6.351562-21.621094v-30.601562h16v104.480469c-11.113281 1.28125-17.945312 5.09375-24.023438 8.574219-6.527343 3.730468-12.152343 6.945312-24.03125 6.945312-7.089843 0-11.953124-1.175781-16.035156-2.847656zm97.246093 139.777344h-133.789062c-16.050781 0-29.105469-13.054688-29.105469-29.105469 0-5.589843 1.601562-11.03125 4.625-15.734375l10.535156-16.398437c5.902344 2.804687 13.449219 5.238281 24.785156 5.238281 16.117188 0 24.535157-4.816406 31.964844-9.054688 6.523438-3.730468 12.152344-6.945312 24.027344-6.945312 11.878906 0 17.519531 3.214844 24.046875 6.945312 7.429687 4.238282 15.847656 9.054688 31.984375 9.054688 11.367188 0 18.941406-2.441406 24.855469-5.246094l10.550781 16.414063c3.023438 4.695312 4.625 10.136719 4.625 15.726562 0 16.050781-13.054688 29.105469-29.105469 29.105469zm301.105469-32h-256.207031c-.488281-7.632812-2.800781-15.023438-6.960938-21.496094l-61.023437-94.917968c-2.488282-3.890626-3.808594-8.378907-3.808594-12.984376v-30.601562h16v-48h-48v-16h24c30.878906 0 56-25.128906 56-56v-8h-40v-144h320zm0 0" data-original="#000000" class="active-path" data-old_color="#000000" fill="#3087A7"/><path d="m336 272c66.167969 0 120-53.832031 120-120s-53.832031-120-120-120-120 53.832031-120 120 53.832031 120 120 120zm-67.574219-41.113281 22.695313-22.6875c12.320312 9.863281 27.902344 15.800781 44.878906 15.800781 3.671875 0 7.246094-.359375 10.769531-.894531l8.320313 31.0625c-6.195313 1.152343-12.5625 1.832031-19.089844 1.832031-25.800781 0-49.382812-9.496094-67.574219-25.113281zm67.574219-134.886719c30.878906 0 56 25.128906 56 56s-25.121094 56-56 56-56-25.128906-56-56 25.121094-56 56-56zm34.535156 153.984375-8.304687-31c18.617187-7.3125 33.441406-22.136719 40.753906-40.753906l31 8.304687c-10.457031 29.570313-33.878906 52.984375-63.449219 63.449219zm67.632813-78.894531-31.0625-8.320313c.535156-3.523437.894531-7.097656.894531-10.769531 0-16.976562-5.9375-32.566406-15.800781-44.886719l22.695312-22.6875c15.609375 18.191407 25.105469 41.773438 25.105469 67.574219 0 6.527344-.679688 12.894531-1.832031 19.089844zm-34.59375-97.976563-22.695313 22.6875c-12.320312-9.863281-27.902344-15.800781-44.878906-15.800781-3.671875 0-7.246094.359375-10.769531.894531l-8.320313-31.0625c6.195313-1.152343 12.5625-1.832031 19.089844-1.832031 25.800781 0 49.382812 9.496094 67.574219 25.113281zm-102.109375-19.097656 8.304687 31c-18.617187 7.3125-33.441406 22.144531-40.753906 40.753906l-31-8.304687c10.457031-29.570313 33.878906-52.984375 63.449219-63.449219zm-67.632813 78.894531 31.0625 8.320313c-.535156 3.523437-.894531 7.097656-.894531 10.769531 0 16.976562 5.9375 32.566406 15.800781 44.886719l-22.695312 22.6875c-15.609375-18.191407-25.105469-41.773438-25.105469-67.574219 0-6.527344.679688-12.894531 1.832031-19.089844zm0 0" data-original="#000000" class="active-path" data-old_color="#000000" fill="#3087A7"/><path d="m448 416h-16v-72h-16v72h-16v-120h-16v120h-16v-88h-16v88h-16v-32h-16v32h-16v-72h-16v72h-16v-48h-16v64h208v-152h-16zm0 0" data-original="#000000" class="active-path" data-old_color="#000000" fill="#3087A7"/></g> </svg>
