<?xml version="1.0"?>
<svg xmlns="http://www.w3.org/2000/svg" height="512px" viewBox="0 0 43 56" width="512px"><g><g id="019---Experiment" transform="translate(0 -1)"><path id="Shape" d="m20.12 24.71 2.71-5.42-1.83-1.29-4 4.6z" data-original="#000000" class="active-path" data-old_color="#000000" fill="#3087A7"/><path id="Shape" d="m15 13c-1.1045695 0-2 .8954305-2 2v5.59c.92-.12 1.35.28 2.32.93l1.08-1.25c-1.0667745-2.2682921-1.5481019-4.7677564-1.4-7.27z" data-original="#000000" class="active-path" data-old_color="#000000" fill="#3087A7"/><path id="Shape" d="m13.82 39.85c.9689724 3.1622569 2.2345981 6.2258746 3.78 9.15h17.09c4.23-2.74 4.31-8.94 4.31-9v-16c0-1.1045695-.8954305-2-2-2s-2 .8954305-2 2v9c.0036739.5086257-.3750349.9389766-.88 1-7 .88-7.12 6.76-7.12 7 0 .5522847-.4477153 1-1 1s-1-.4477153-1-1c.1851903-4.4944583 3.5477123-8.2184513 8-8.86v-3.45c-3.1994839.6608978-6.5275722.249719-9.47-1.17.0245609.0652125.0446081.1320368.06.2.1054883.5231998-.0025235 1.0668594-.3 1.51l-1.11 1.67c-.2934631.4440406-.7518178.7527903-1.2735894.8578954s-1.0639168-.0021051-1.5064106-.2978954z" data-original="#000000" class="active-path" data-old_color="#000000" fill="#3087A7"/><path id="Rectangle-path" d="m16 51h20v6h-20z" data-original="#000000" class="active-path" data-old_color="#000000" fill="#3087A7"/><path id="Shape" d="m20.51 29.79 1.12-1.67-8.35-5.55-1.11 1.67z" data-original="#000000" class="active-path" data-old_color="#000000" fill="#3087A7"/><circle id="Oval" cx="35" cy="12" r="1" data-original="#000000" class="active-path" data-old_color="#000000" fill="#3087A7"/><path id="Shape" d="m22.44 24.55c3.0467518 2.2032052 6.9021198 2.9698977 10.56 2.1v-2.65c.0045726-1.7714778 1.173786-3.328948 2.8735802-3.8278007 1.6997943-.4988527 3.525246.1797485 4.4864198 1.6678007 3.1852061-4.2119945 3.5059927-9.9322835.8116834-14.47399382-2.6943093-4.5417103-7.8682934-7.00229965-13.0916834-6.22600618-1.0110434.1672839-1.9981882.45604054-2.94.86-6.5280782 2.64251207-9.764822 10.0027788-7.3 16.6l1.6-1.86c.6592034-.768338 1.7885701-.9229281 2.63-.36.14.1-.4.82 4.48-6.53-1.6198338-.46995221-2.6718104-2.03106451-2.4992542-3.70884304.1725563-1.67777853 1.5202646-2.99208787 3.2018442-3.12249609 1.6815797-.13040822 3.2158076.96040404 3.6449719 2.59151852.4291643 1.63111449-.3695503 3.33574979-1.8975619 4.04982061 0 .29.31-.31-5.14 7.89.9149848.5321427 1.2569121 1.6850514.78 2.63zm16.56-8.55c.5522847 0 1 .4477153 1 1s-.4477153 1-1 1-1-.4477153-1-1 .4477153-1 1-1zm-5-11c.5522847 0 1 .44771525 1 1s-.4477153 1-1 1-1-.44771525-1-1 .4477153-1 1-1zm1 4c1.6568542 0 3 1.3431458 3 3s-1.3431458 3-3 3-3-1.3431458-3-3 1.3431458-3 3-3zm-4 7c.5522847 0 1 .4477153 1 1s-.4477153 1-1 1-1-.4477153-1-1 .4477153-1 1-1zm-3 4c.5522847 0 1 .4477153 1 1s-.4477153 1-1 1-1-.4477153-1-1 .4477153-1 1-1z" data-original="#000000" class="active-path" data-old_color="#000000" fill="#3087A7"/><circle id="Oval" cx="27.5" cy="6.5" r="1.5" data-original="#000000" class="active-path" data-old_color="#000000" fill="#3087A7"/><path id="Shape" d="m5 45.93c-.45078025-.3077596-.57150798-.9201318-.27126602-1.3759537s.91052787-.586688 1.37126602-.2940463l1.68 1.12 1.11-1.68-1.7-1.11c-.45078025-.3077596-.57150798-.9201318-.27126602-1.3759537s.91052787-.586688 1.37126602-.2940463l1.71 1.08 1.11-1.68-1.67-1.11c-.33440654-.1793781-.5384678-.5325821-.52683412-.9118826.01163367-.3793006.2369575-.7193347.58172867-.8778815s.74957705-.1082846 1.04510545.1297641l1.68 1.11 1.08-1.66-1.67-1.11c-.456275-.3051825-.5812473-.9211173-.28-1.38.1467316-.2220203.3759089-.3763952.6367947-.4289477s.5319584.0010525.7532053.1489477l1.67 1.11 1.11-1.68-1.67-1.11c-.456275-.3051825-.5812473-.9211173-.28-1.38.150099-.230402.3884507-.3888284.6589966-.4380186s.5494093.0151972.7710034.1780186l1.63 1.09 1.11-1.67-5-3.33-12.74 19.11v10.89l6.64-10z" data-original="#000000" class="active-path" data-old_color="#000000" fill="#3087A7"/></g></g> </svg>
