<?xml version="1.0"?>
<svg xmlns="http://www.w3.org/2000/svg" height="512px" viewBox="0 0 47 61" width="512px" class=""><g><g id="019---Experiment"><path id="Shape" d="m37 17c1.6568542 0 3-1.3431458 3-3s-1.3431458-3-3-3-3 1.3431458-3 3 1.3431458 3 3 3zm0-4c.5522847 0 1 .4477153 1 1s-.4477153 1-1 1-1-.4477153-1-1 .4477153-1 1-1z" data-original="#000000" class="active-path" data-old_color="#000000" fill="#3087A7"/><circle id="Oval" cx="33" cy="19" r="1" data-original="#000000" class="active-path" data-old_color="#000000" fill="#3087A7"/><circle id="Oval" cx="30" cy="23" r="1" data-original="#000000" class="active-path" data-old_color="#000000" fill="#3087A7"/><circle id="Oval" cx="41" cy="19" r="1" data-original="#000000" class="active-path" data-old_color="#000000" fill="#3087A7"/><circle id="Oval" cx="36" cy="8" r="1" data-original="#000000" class="active-path" data-old_color="#000000" fill="#3087A7"/><path id="Shape" d="m3.67 60.11 10.72-16.11c.836013 2.4326572 1.8383791 4.8049236 3 7.1-.826482.2646862-1.3879578 1.032171-1.39 1.9v6c0 1.1045695.8954305 2 2 2h20c1.1045695 0 2-.8954305 2-2v-6c-.0024563-.5862375-.2619992-1.1418786-.71-1.52 3.71-3.58 3.71-9.21 3.71-9.48v-15.82c4.3174981-4.6563066 5.2352739-11.5267271 2.2913656-17.15303891-2.9439084-5.62631181-9.1115831-8.78934498-15.3985283-7.89698844-6.2869453.89235654-11.3308379 5.64673735-12.5928373 11.87002735-1.1118139-.083626-2.2080768.3005861-3.0244316 1.059986-.8163549.7593999-1.278709 1.8250639-1.2755684 2.940014v7.38l-.5.75c-.2948441.4437128-.4004764.9867223-.2934712 1.5086074s.4178038.9795113.8634712 1.2713926l-12.71 19.09c-.22345637.3280696-.34837291.713229-.36 1.11v10.89c-.00421944.8850703.57379666 1.6676589 1.42097598 1.9238902.84717931.2562314 1.76202385-.074838 2.24902402-.8138902zm14.33-1.11v-6h20v6zm9.12-55c5.4031669-2.15339483 11.5792086-.45564473 15.122426 4.15704778 3.5432174 4.61269252 3.591235 11.01765462.117574 15.68295222-.9611738-1.4880522-2.7866255-2.1666534-4.4864198-1.6678007-1.6997942.4988527-2.8690076 2.0563229-2.8735802 3.8278007v2.65c-3.6578802.8698977-7.5132482.1032052-10.56-2.1l2.18-4.37c.4518554-.9026618.1602293-2.0005483-.68-2.56-.15-.1-.64.74 4.89-7.58.0756168-.1149949.1266822-.2443608.15-.38 1.5431206-.7126167 2.3539059-2.42849778 1.9246203-4.07311253s-1.9752703-2.74531996-3.669817-2.61282453c-1.6945468.13249542-3.0506625 1.46011383-3.2191113 3.15146501-.1684487 1.69135118.8991798 3.26036035 2.534308 3.72447205-4.17 6.27-4.48 6.86-4.48 6.53-.8414299-.5629281-1.9707966-.408338-2.63.36l-1.6 1.86c-2.4671109-6.5917137.7597741-13.94972072 7.28-16.6zm-12.95 22.24 1.11-1.67c.1 0-.95-.64 8.35 5.55l-1.12 1.67zm8.83-6.24 1.87 1.25-2.71 5.42-3.16-2.03zm6.5-10c-.8284271 0-1.5-.67157288-1.5-1.5s.6715729-1.5 1.5-1.5 1.5.67157288 1.5 1.5-.6715729 1.5-1.5 1.5zm-12.5 5c-.1540584 2.4994958.316776 4.9980113 1.37 7.27l-1.08 1.25c-1-.66-1.42-1.05-2.32-.93v-5.59c-.0000603-.535672.2147666-1.0489796.596353-1.4249267.3815864-.3759472.8980353-.5831084 1.433647-.5750733zm7.15 17.9 1.11-1.67c.3346176-.5043237.4228596-1.1330479.24-1.71 2.9511651 1.4263838 6.2909316 1.8377024 9.5 1.17v3.45c-4.4522877.6415487-7.8148097 4.3655417-8 8.86 0 .5522847.4477153 1 1 1s1-.4477153 1-1c0-.25.13-6.13 7.12-7 .5049651-.0610234.8836739-.4913743.88-1v-9c0-1.1045695.8954305-2 2-2s2 .8954305 2 2v16c0 .06-.08 6.26-4.31 9h-17.09c-1.5454019-2.9241254-2.8110276-5.9877431-3.78-9.15 1.33-2-3.16 4.74 5.58-8.4.4412751.2967445.9825597.4055362 1.50422.30233s.9807421-.4099121 1.27578-.85233zm-22.15 26.1v-10.89l12.73-19.11 5 3.33-1.1 1.67-1.63-1.09c-.2212469-.1478952-.4923195-.2015002-.7532053-.1489477s-.4900631.2069274-.6367947.4289477c-.3012473.4588827-.176275 1.0748175.28 1.38l1.67 1.11-1.11 1.68-1.67-1.11c-.2212469-.1478952-.4923195-.2015002-.7532053-.1489477s-.4900631.2069274-.6367947.4289477c-.3012473.4588827-.176275 1.0748175.28 1.38l1.63 1.09-1.11 1.7-1.68-1.11c-.2955284-.2380487-.7003343-.2883109-1.0451054-.1297641-.3447712.1585468-.570095.4985809-.5817287.8778815-.0116337.3793005.1924276.7325045.5268341.9118826l1.67 1.11-1.08 1.64-1.68-1.12c-.46073815-.2926417-1.07102406-.1617756-1.37126602.2940463s-.17951423 1.0681941.27126602 1.3759537l1.67 1.11-1.14 1.72-1.68-1.12c-.4545099-.214429-.99755794-.0582276-1.26867642.3649199s-.18607643.9817779.19867642 1.3050801l1.64 1.07c-6.64 10.05-6.64 10.1-6.64 10z" data-original="#000000" class="active-path" data-old_color="#000000" fill="#3087A7"/></g></g> </svg>
