<svg id="_019---Experiment" data-name="019---Experiment" xmlns="http://www.w3.org/2000/svg" width="60" height="76.605" viewBox="0 0 60 76.605">
  <g id="Layer_4" transform="translate(20.076 1.379)">
    <path id="Shape" d="M43.8,30.377l-3.817,4.609c-1.047.306-5.95.523-7.06.626a17.56,17.56,0,0,1-9.32-3.907L19,26.075A17.867,17.867,0,0,1,28.171,1.293a.013.013,0,0,1,.013-.013A17.222,17.222,0,0,1,33.01.08,17.9,17.9,0,0,1,43.8,30.377Z" transform="translate(-12.824 -0.08)" fill="#fff"/>
    <g id="Group_6" data-name="Group 6" transform="translate(3.537 5.005)">
      <path id="Oval" d="M3.192,0A3.192,3.192,0,1,1,0,3.192,3.192,3.192,0,0,1,3.192,0Z" transform="translate(12.129)" fill="#fff"/>
      <circle id="Oval-2" data-name="Oval" cx="2.554" cy="2.554" r="2.554" transform="translate(22.343 7.661)" fill="#fff"/>
      <path id="Shape-2" data-name="Shape" d="M24.182,17.259l2.381,1.583A1.277,1.277,0,0,1,27,20.479L22.9,28.7l-6.4-4.252,6-6.958a1.277,1.277,0,0,1,1.681-.23Z" transform="translate(-16.5 -0.391)" fill="#fff"/>
    </g>
    <path id="Shape-3" data-name="Shape" d="M48.547,24.83V45.258s0,8.937-6.384,12.768H19.182A68.307,68.307,0,0,1,13.73,44.85c4.747-7.15,5.039-7.592,8.158-12.27l1.072.7a1.277,1.277,0,0,0,1.775-.357l1.417-2.132a1.277,1.277,0,0,0-.357-1.775L23.664,27.6l.841-1.688A17.823,17.823,0,0,0,40.887,29.2V24.83a3.83,3.83,0,1,1,7.661,0Z" transform="translate(-13.73 5.71)" fill="#fff"/>
  </g>
  <path id="Shape-4" data-name="Shape" d="M20.6,0h-.179A3.83,3.83,0,0,0,16.6,3.83v9.805l-.855,1.277a1.287,1.287,0,0,0-.026,1.366,1.069,1.069,0,0,0,.383.409l.647.43.037.867L.24,42.848a1.265,1.265,0,0,0-.217.7L.01,55.258v2.2a1.277,1.277,0,0,0,2.336.7L3.84,55.913v-.655L3.853,43.55a1.265,1.265,0,0,1,.217-.7L20.612,17.984l-.037-.867Z" transform="translate(1.272 16.598)" fill="#fff"/>
  <path id="Rectangle-path" d="M0,0H10.214V2.554H0Z" transform="matrix(0.554, -0.832, 0.832, 0.554, 0.443, 59.011)" fill="#fff"/>
  <g id="Group_7" data-name="Group 7">
    <path id="Shape-5" data-name="Shape" d="M37.83,17.661A3.83,3.83,0,1,0,34,13.83,3.83,3.83,0,0,0,37.83,17.661Zm0-5.107a1.277,1.277,0,1,1-1.277,1.277A1.277,1.277,0,0,1,37.83,12.554Z" transform="translate(9.402 2.767)" fill="#555"/>
    <circle id="Oval-3" data-name="Oval" cx="1.277" cy="1.277" r="1.277" transform="translate(40.848 21.705)" fill="#555"/>
    <circle id="Oval-4" data-name="Oval" cx="1.277" cy="1.277" r="1.277" transform="translate(37.018 26.812)" fill="#555"/>
    <circle id="Oval-5" data-name="Oval" cx="1.277" cy="1.277" r="1.277" transform="translate(51.063 21.705)" fill="#555"/>
    <circle id="Oval-6" data-name="Oval" cx="1.277" cy="1.277" r="1.277" transform="translate(44.679 7.66)" fill="#555"/>
    <path id="Shape-6" data-name="Shape" d="M3.705,44.783a1.277,1.277,0,1,1-.013-2.554h.013a1.277,1.277,0,1,1,0,2.554Z" transform="translate(0.663 11.687)" fill="#555"/>
    <path id="Shape-7" data-name="Shape" d="M1.816,76.493a2.6,2.6,0,0,0,.752.112,2.538,2.538,0,0,0,2.116-1.14l9.142-13.739a.334.334,0,0,0,.034-.04.166.166,0,0,0,.013-.032l2.792-4.194c.009-.013.022-.023.031-.036s.006-.02.011-.029L18.372,54.9a71.614,71.614,0,0,0,3.842,9.065,2.553,2.553,0,0,0-1.787,2.426v7.661a2.554,2.554,0,0,0,2.554,2.554H48.515a2.554,2.554,0,0,0,2.554-2.554V66.391a2.538,2.538,0,0,0-.906-1.936C54.836,59.886,54.9,52.693,54.9,52.347v-20.2A19.132,19.132,0,0,0,40.854,0a19.441,19.441,0,0,0-2.837.207A18.994,18.994,0,0,0,33.676,1.4c-.037.015-.074.033-.109.051A19.151,19.151,0,0,0,22.077,15.358c-.128-.009-.255-.037-.383-.037a5.107,5.107,0,0,0-5.107,5.107v9.422l-.638.956a2.554,2.554,0,0,0,.714,3.544h.008L6.115,50.234a1.277,1.277,0,1,0,2.126,1.415L18.809,35.771l6.384,4.254-1.418,2.132L21.642,40.74a1.277,1.277,0,1,0-1.413,2.126l2.131,1.417L20.938,46.42,18.806,45a1.277,1.277,0,1,0-1.413,2.126l2.14,1.416-1.425,2.142-2.131-1.416A1.277,1.277,0,0,0,14.562,51.4l2.131,1.416L15.271,54.95l-2.122-1.422a1.278,1.278,0,0,0-1.42,2.126l2.128,1.417-1.422,2.135-2.128-1.415a1.277,1.277,0,1,0-1.413,2.126l2.128,1.415L2.559,74.052l.022-13.892a1.425,1.425,0,0,0-.56-1.708,1.149,1.149,0,0,0-1.564.28,2.566,2.566,0,0,0-.429,1.417l-.022,13.9a2.538,2.538,0,0,0,1.81,2.441ZM22.98,74.052V66.391H48.515v7.661Zm29.365-21.7c0,.08-.1,7.992-5.5,11.491H25.023A67.266,67.266,0,0,1,20.2,52.153l2.154-3.237.017-.018v-.014l2.818-4.234.011-.015v-.01l2.122-3.192a2.561,2.561,0,0,0,3.546-.714l1.417-2.131a2.541,2.541,0,0,0,.383-1.915,2.587,2.587,0,0,0-.082-.267,18.956,18.956,0,0,0,12.1,1.5v4.407A11.933,11.933,0,0,0,34.471,53.624a1.277,1.277,0,1,0,2.554,0c0-.319.167-7.837,9.1-8.953a1.277,1.277,0,0,0,1.118-1.261V31.919a2.554,2.554,0,1,1,5.107,0ZM29.315,24.313,31.7,25.9,28.244,32.83l-1.993-1.324L24.257,30.18Zm.85,12.867-1.421,2.132L18.087,32.22l1.418-2.133Zm4.469-33.4a1.2,1.2,0,0,0,.128-.057,16.52,16.52,0,0,1,3.644-.987,17.031,17.031,0,0,1,2.449-.177A16.58,16.58,0,0,1,54.077,29.161a5.1,5.1,0,0,0-9.392,2.758V35.3A16.482,16.482,0,0,1,31.2,32.624l2.783-5.582a2.561,2.561,0,0,0-.871-3.27l-.128-.084,6.384-9.594a1.268,1.268,0,0,0,.192-.486,4.476,4.476,0,1,0-3.1.255l-5.6,8.41-.128-.084a2.565,2.565,0,0,0-3.353.461l-2.043,2.373a16.406,16.406,0,0,1-1.078-5.872,17.536,17.536,0,0,1,.128-2.11A16.582,16.582,0,0,1,34.629,3.775Zm3.028,7.715a1.915,1.915,0,1,1,1.915-1.915A1.915,1.915,0,0,1,37.663,11.491ZM21.7,17.875h.045c-.028.43-.045.855-.045,1.277a19.2,19.2,0,0,0,1.787,8l-1.379,1.6-1.192-.793a2.534,2.534,0,0,0-1.77-.392V20.428A2.554,2.554,0,0,1,21.7,17.875Z" transform="translate(-0.006 0)" fill="#555"/>
  </g>
</svg>
