<svg id="vote" xmlns="http://www.w3.org/2000/svg" width="55.325" height="55.319" viewBox="0 0 55.325 55.319">
  <g id="Group_399" data-name="Group 399">
    <g id="Group_398" data-name="Group 398" transform="translate(0 0)">
      <path id="Path_162" data-name="Path 162" d="M53.7,22.822h-8.53l5.44-3.141a1.621,1.621,0,0,0,.589-2.222L41.478.83a1.621,1.621,0,0,0-2.2-.59L11.2,16.233a1.621,1.621,0,0,0-.6,2.219l2.523,4.37H1.621A1.621,1.621,0,0,0,0,24.442V53.726a1.621,1.621,0,0,0,1.621,1.621H53.7a1.621,1.621,0,0,0,1.621-1.621V24.442A1.621,1.621,0,0,0,53.7,22.822ZM39.489,3.85l8.093,13.838L27.461,29.3H20.61L14.224,18.243ZM52.083,52.105H3.242V39.03H52.083Zm0-16.317H3.242V26.063H15L16.867,29.3H11.454a1.621,1.621,0,1,0,0,3.242H43.871a1.621,1.621,0,1,0,0-3.242H33.944l5.615-3.242H52.083Z" transform="translate(0 -0.028)" fill="#52be00"/>
    </g>
  </g>
  <g id="Group_401" data-name="Group 401" transform="translate(26.042 9.827)">
    <g id="Group_400" data-name="Group 400">
      <path id="Path_163" data-name="Path 163" d="M249.617,91.051a1.621,1.621,0,0,0-2.05,1.025l-2.412,7.237-1.387-1.387a1.621,1.621,0,1,0-2.292,2.292l3.242,3.242a1.621,1.621,0,0,0,2.684-.634l3.242-9.725A1.621,1.621,0,0,0,249.617,91.051Z" transform="translate(-241 -90.968)" fill="#52be00"/>
    </g>
  </g>
</svg>
